<svg xmlns="http://www.w3.org/2000/svg" version="1.1" x="0" y="0" viewBox="0 0 2808 890" enable-background="new 0 0 2808 890" xml:space="preserve"><path fill="#999999" d="M429 826.4H150.5c-26.4 0-47.7-21.4-47.7-47.7V109.7c0-26.4 21.4-47.7 47.7-47.7H429c26.4 0 47.7 21.4 47.7 47.7v668.9C476.8 805.1 455.4 826.4 429 826.4z"/><rect x="124.8" y="161.3" fill="#FFFFFF" width="330" height="559.5"/><circle fill="#FFFFFF" cx="290" cy="773" r="31"/><path fill="#FFFFFF" d="M318.7 125.7h-57.9c-3.4 0-6.2-2.8-6.2-6.2v0c0-3.4 2.8-6.2 6.2-6.2h57.9c3.4 0 6.2 2.8 6.2 6.2v0C324.9 122.9 322.1 125.7 318.7 125.7z"/><circle fill="#FFFFFF" cx="238.3" cy="119.3" r="6.2"/><circle fill="#CCCCCC" cx="134.3" cy="170.3" r="2.1"/><circle fill="#CCCCCC" cx="141.3" cy="170.3" r="2.1"/><circle fill="#CCCCCC" cx="148.3" cy="170.3" r="2.1"/><circle fill="#CCCCCC" cx="155.3" cy="170.3" r="2.1"/><circle fill="#CCCCCC" cx="162.3" cy="170.3" r="2.1"/><rect x="428" y="169" fill="none" stroke="#CCCCCC" stroke-miterlimit="10" width="20" height="8"/><rect x="429.3" y="170.2" fill="#CCCCCC" width="6.1" height="5.6"/><path fill="#CCCCCC" d="M450.2 176.1h-0.4c-0.2 0-0.3-0.1-0.3-0.3v-5.2c0-0.2 0.1-0.3 0.3-0.3h0.4c0.2 0 0.3 0.1 0.3 0.3v5.2C450.6 176 450.4 176.1 450.2 176.1z"/><path opacity="0.26" fill="#FFFFFF" stroke="#828282" stroke-width="2" stroke-miterlimit="10" d="M428.9 507.7H151.1c-4.4 0-8-3.6-8-8v-62.1c0-4.4 3.6-8 8-8h277.8c4.4 0 8 3.6 8 8v62.1C436.9 504.1 433.3 507.7 428.9 507.7z"/><line opacity="0.26" fill="none" stroke="#C5C5C5" stroke-width="2" stroke-miterlimit="10" x1="143" y1="469" x2="437" y2="469"/><image overflow="visible" opacity="0.25" width="318" height="85" transform="matrix(1 0 0 1 131 532)"/><path fill="#999999" d="M429 599.2H151.1c-4.4 0-8-3.6-8-8v-43.6c0-4.4 3.6-8 8-8H429c4.4 0 8 3.6 8 8v43.6C437 595.6 433.4 599.2 429 599.2z"/><circle fill="#999999" cx="163.3" cy="488.3" r="3"/><circle fill="#999999" cx="175.5" cy="488.3" r="3"/><circle fill="#999999" cx="187.7" cy="488.3" r="3"/><circle fill="#999999" cx="200" cy="488.3" r="3"/><circle fill="#999999" cx="212.2" cy="488.3" r="3"/><circle fill="#999999" cx="224.4" cy="488.3" r="3"/><circle fill="#999999" cx="236.6" cy="488.3" r="3"/><circle fill="#999999" cx="248.8" cy="488.3" r="3"/><circle fill="#999999" cx="261.1" cy="488.3" r="3"/><circle fill="#999999" cx="273.3" cy="488.3" r="3"/><text transform="matrix(1 0 0 1 158.738 457.3281)" fill="#999999" font-family="'Helvetica'" font-size="21">Email</text><circle fill="#999999" cx="290" cy="310" r="66.3"/><path opacity="0.26" fill="none" stroke="#828282" stroke-width="2" stroke-miterlimit="10" d="M172.5 671.1h-21.4c-4.4 0-8-3.6-8-8v-24c0-4.4 3.6-8 8-8h21.4c4.4 0 8 3.6 8 8v24C180.5 667.5 176.9 671.1 172.5 671.1z"/><text transform="matrix(1 0 0 1 257.0232 342.7648)" fill="#FFFFFF" font-family="'CherrySwash-Regular'" font-size="84">F</text><text transform="matrix(1 0 0 1 193.738 659.3281)" fill="#999999" font-family="'Helvetica'" font-size="21">I agree…Forms Rock!</text><path fill="#999999" d="M172.4 639.3c0 1.3-0.9 2.4-1.6 3.7l-0.1 0.2 -5.5 11.8c-1.4 2.5-2.6 4.5-3.6 5.9 -1 1.4-1.8 1.2-2.4 1.4 -0.6 0.2-1.4 0.1-2.4-0.2 -1-0.3-1.7-0.7-2.1-1.2 -0.7-1-0.8-1.4-1.4-2.9 -0.6-1.5-0.8-1.8-1.6-4 -0.3-1-0.1-2 0.5-3.1 0.6-1.1 1.4-1.7 2.4-2 1-0.3 1.8 0.5 2.4 2.2 0.1 0.2 0.1 0.3 0.2 0.4 0.5 1.3 0.9 3.2 1.3 3.6 0.3 0.5 0.7 0.7 1 0.6 0.1 0 0.4-0.3 0.7-0.7 0.3-0.4 1.7-2.9 2.1-3.6l5.8-10.5c0.6-1 1.1-1.7 1.6-2.3 0.5-0.6 1-0.9 1.4-1 0.3-0.1 0.6 0 0.8 0.2 0.2 0.2 0.4 0.6 0.5 1.2L172.4 639.3z"/><text transform="matrix(1 0 0 1 232.9032 576.9155)" fill="#FFFFFF" font-family="'Helvetica'" font-size="24">Let’s Do It!</text><path fill="#999999" d="M1261.3 833.1H793.1c-26.4 0-47.7-21.4-47.7-47.7V100.9c0-26.4 21.4-47.7 47.7-47.7h468.2c26.4 0 47.7 21.4 47.7 47.7v684.5C1309.1 811.7 1287.7 833.1 1261.3 833.1z"/><path fill="#FFFFFF" d="M1265.3 725.3H789.6c-7.8 0-14.1-6.3-14.1-14.1V104.9c0-7.8 6.3-14.1 14.1-14.1h475.7c7.8 0 14.1 6.3 14.1 14.1v606.2C1279.4 718.9 1273.1 725.3 1265.3 725.3z"/><ellipse fill="#FFFFFF" cx="1024.5" cy="778.6" rx="30.4" ry="31.6"/><path opacity="0.26" fill="#FFFFFF" stroke="#828282" stroke-width="2" stroke-miterlimit="10" d="M1222.8 494.5H832.1c-4.4 0-8-3.6-8-8v-80.5c0-4.4 3.6-8 8-8h390.8c4.4 0 8 3.6 8 8v80.5C1230.8 491 1227.2 494.5 1222.8 494.5z"/><line opacity="0.26" fill="none" stroke="#C5C5C5" stroke-width="2" stroke-miterlimit="10" x1="825" y1="446" x2="1231" y2="446"/><image overflow="visible" opacity="0.25" width="422" height="85" transform="matrix(1 0 0 1 820.5931 523.0434)"/><path fill="#999999" d="M1222.6 591H840.8c-4.4 0-8-3.6-8-8v-44.8c0-4.4 3.6-8 8-8h381.8c4.4 0 8 3.6 8 8V583C1230.6 587.4 1227 591 1222.6 591z"/><ellipse fill="#999999" cx="856.8" cy="469.7" rx="3" ry="3.1"/><ellipse fill="#999999" cx="868.8" cy="469.7" rx="3" ry="3.1"/><ellipse fill="#999999" cx="880.8" cy="469.7" rx="3" ry="3.1"/><ellipse fill="#999999" cx="892.9" cy="469.7" rx="3" ry="3.1"/><ellipse fill="#999999" cx="904.9" cy="469.7" rx="3" ry="3.1"/><ellipse fill="#999999" cx="916.9" cy="469.7" rx="3" ry="3.1"/><ellipse fill="#999999" cx="928.9" cy="469.7" rx="3" ry="3.1"/><ellipse fill="#999999" cx="940.9" cy="469.7" rx="3" ry="3.1"/><text transform="matrix(0.9625 0 0 1 852.8049 432.7055)" fill="#999999" font-family="'Helvetica'" font-size="21.43">Email</text><ellipse fill="#999999" cx="1023.5" cy="245" rx="65.1" ry="67.6"/><text transform="matrix(0.9625 0 0 1 991.1262 278.3891)" fill="#FFFFFF" font-family="'CherrySwash-Regular'" font-size="85.71">F</text><text transform="matrix(0.9625 0 0 1 971.3196 568.3149)" fill="#FFFFFF" font-family="'Helvetica'" font-size="24.49">Let’s Do It!</text><path fill="#999999" d="M2646.5 779.6H1623.3c-26.4 0-47.7-21.4-47.7-47.7v-630c0-26.4 21.4-47.7 47.7-47.7h1023.2c26.4 0 47.7 21.4 47.7 47.7v630C2694.2 758.2 2672.8 779.6 2646.5 779.6z"/><path fill="#FFFFFF" d="M2663.1 676.8H1606.7V98.7c0-6.6 5.4-12 12-12h1032.4c6.6 0 12 5.4 12 12V676.8z"/><path opacity="0.26" fill="#FFFFFF" stroke="#828282" stroke-width="2" stroke-miterlimit="10" d="M2326.9 393.9h-384c-4.4 0-8-3.6-8-8v-38.4c0-4.4 3.6-8 8-8h384c4.4 0 8 3.6 8 8v38.4C2334.9 390.3 2331.3 393.9 2326.9 393.9z"/><path opacity="0.26" fill="#FFFFFF" stroke="#828282" stroke-width="2" stroke-miterlimit="10" d="M2370.8 606.2h-469c-4.4 0-8-3.6-8-8V287.4c0-4.4 3.6-8 8-8h469c4.4 0 8 3.6 8 8v310.8C2378.8 602.6 2375.2 606.2 2370.8 606.2z"/><image overflow="visible" opacity="0.25" width="207" height="86" transform="matrix(1 0 0 1 2137 492)"/><path fill="#999999" d="M2323.8 560h-166.5c-4.4 0-8-3.6-8-8v-44.8c0-4.4 3.6-8 8-8h166.5c4.4 0 8 3.6 8 8V552C2331.8 556.4 2328.2 560 2323.8 560z"/><ellipse fill="#999999" cx="1967" cy="442.7" rx="3" ry="3.1"/><ellipse fill="#999999" cx="1979" cy="442.7" rx="3" ry="3.1"/><ellipse fill="#999999" cx="1991.1" cy="442.7" rx="3" ry="3.1"/><ellipse fill="#999999" cx="2003.1" cy="442.7" rx="3" ry="3.1"/><ellipse fill="#999999" cx="2015.1" cy="442.7" rx="3" ry="3.1"/><ellipse fill="#999999" cx="2027.1" cy="442.7" rx="3" ry="3.1"/><ellipse fill="#999999" cx="2039.1" cy="442.7" rx="3" ry="3.1"/><ellipse fill="#999999" cx="2051.1" cy="442.7" rx="3" ry="3.1"/><text transform="matrix(0.9163 0 0 1 1963.0084 378.4296)" fill="#999999" font-family="'Helvetica'" font-size="22.51">Email</text><ellipse fill="#999999" cx="2133.7" cy="185.9" rx="65.1" ry="67.6"/><text transform="matrix(0.9625 0 0 1 2101.3296 219.3602)" fill="#FFFFFF" font-family="'CherrySwash-Regular'" font-size="85.71">F</text><text transform="matrix(0.9625 0 0 1 2185.4434 538.2858)" fill="#FFFFFF" font-family="'Helvetica'" font-size="24">Let’s Do It!</text><polygon fill="#999999" points="2258.1 850 2218.9 774 2050.9 774 2011.7 850 1972 850 1972 862 2297 862 2297 850 "/><path opacity="0.26" fill="#FFFFFF" stroke="#828282" stroke-width="2" stroke-miterlimit="10" d="M2325.9 469.9h-384c-4.4 0-8-3.6-8-8v-38.4c0-4.4 3.6-8 8-8h384c4.4 0 8 3.6 8 8v38.4C2333.9 466.3 2330.3 469.9 2325.9 469.9z"/><path opacity="0.26" fill="none" stroke="#828282" stroke-width="2" stroke-miterlimit="10" d="M1963 547.9h-21.4c-4.4 0-8-3.6-8-8v-24c0-4.4 3.6-8 8-8h21.4c4.4 0 8 3.6 8 8v24C1971 544.3 1967.4 547.9 1963 547.9z"/><text transform="matrix(1 0 0 1 1982.5345 536.3135)" fill="#999999" font-family="'Helvetica'" font-size="24">I agree</text><path fill="#999999" d="M1961.2 519c0 1.1-0.7 1.9-1.3 3l-0.1 0.2 -4.5 9.6c-1.1 2-2.1 3.6-3 4.8 -0.9 1.2-1.5 1-2 1.1 -0.5 0.1-1.1 0.1-1.9-0.2 -0.8-0.3-1.4-0.6-1.7-1 -0.5-0.8-0.7-1.1-1.1-2.4 -0.5-1.2-0.7-1.4-1.3-3.3 -0.2-0.8-0.1-1.6 0.4-2.5 0.5-0.9 1.2-1.4 2-1.6 0.8-0.2 1.4 0.4 2 1.8 0.1 0.2 0.1 0.3 0.1 0.4 0.4 1.1 0.8 2.6 1 3 0.3 0.4 0.6 0.5 0.8 0.5 0.1 0 0.3-0.2 0.6-0.6 0.3-0.3 1.4-2.4 1.7-3l4.7-8.6c0.5-0.8 0.9-1.4 1.3-1.9 0.4-0.5 0.8-0.7 1.1-0.8 0.3-0.1 0.5 0 0.6 0.1 0.2 0.2 0.3 0.5 0.4 0.9L1961.2 519z"/></svg>